<!DOCTYPE svg PUBLIC "-//W3C//DTD SVG 1.1//EN" "http://www.w3.org/Graphics/SVG/1.1/DTD/svg11.dtd">
<!-- Uploaded to: SVG Repo, www.svgrepo.com, Transformed by: SVG Repo Mixer Tools -->
<svg version="1.1" id="Layer_1" xmlns="http://www.w3.org/2000/svg" xmlns:xlink="http://www.w3.org/1999/xlink" viewBox="0 0 512 512" xml:space="preserve" width="80px" height="80px" fill="#000000">
<g id="SVGRepo_bgCarrier" stroke-width="0"/>
<g id="SVGRepo_tracerCarrier" stroke-linecap="round" stroke-linejoin="round"/>
<g id="SVGRepo_iconCarrier"> <path style="fill:#BF655F;" d="M307.2,396.8c-28.237,0-51.2-22.963-51.2-51.2s22.963-51.2,51.2-51.2s51.2,22.963,51.2,51.2 S335.437,396.8,307.2,396.8z"/> <path style="fill:#6FB0B6;" d="M263.893,425.839l-34.953,9.31l34.458-59.665l11.657,9.54c5.359,4.395,11.452,7.595,18.116,9.506 l15.727,4.523l-35.601,61.687L263.893,425.839z"/> <polygon style="fill:#E9EBEF;" points="320,128 320,7.492 440.491,128 "/> <path style="fill:#6FB0B6;" d="M305.51,399.061l15.727-4.523c6.656-1.92,12.757-5.12,18.125-9.498l11.657-9.523l34.458,59.639 l-34.944-9.318l-9.412,34.918L305.51,399.061z"/> <path style="fill:#D3D7DF;" d="M76.8,499.2V12.8H320V128h115.2v371.2H76.8z M273.254,460.809l33.946-58.812l33.946,58.803 l9.361-34.987l34.987,9.387l-35.388-61.303l2.978-6.11c3.524-7.262,5.316-14.72,5.316-22.187c0-28.237-22.963-51.2-51.2-51.2 S256,317.363,256,345.6c0,7.467,1.792,14.925,5.325,22.195l2.978,6.11L228.907,435.2l34.987-9.387L273.254,460.809z"/> <g> <path style="fill:#573A32;" d="M440.499,109.909L338.099,7.501C333.303,2.697,326.793,0,320,0H89.6C75.46,0,64,11.46,64,25.6v460.8 c0,14.14,11.46,25.6,25.6,25.6h332.8c14.14,0,25.6-11.46,25.6-25.6V128.009C448,121.225,445.303,114.714,440.499,109.909z M332.8,38.4l76.791,76.8H332.8V38.4z M422.4,486.4H89.6V25.6h217.6V128c0,7.074,5.726,12.8,12.8,12.8h102.4V486.4z"/> <rect x="140.8" y="166.4" style="fill:#573A32;" width="230.4" height="25.6"/> <rect x="140.8" y="217.6" style="fill:#573A32;" width="230.4" height="25.6"/> <rect x="140.8" y="268.8" style="fill:#573A32;" width="76.8" height="25.6"/> <path style="fill:#573A32;" d="M371.2,345.6c0-35.285-28.715-64-64-64s-64,28.715-64,64c0,10.001,2.509,19.354,6.613,27.793 L217.822,428.8c-2.586,4.489-2.227,10.086,0.939,14.191c3.14,4.122,8.448,5.965,13.466,4.574l22.613-6.059l6.05,22.613 c1.34,5.001,5.564,8.704,10.684,9.378c0.563,0.077,1.126,0.111,1.673,0.111c4.54,0,8.772-2.398,11.085-6.4l22.869-39.603 l22.861,39.595c2.313,4.002,6.554,6.4,11.085,6.4c0.546,0,1.109-0.034,1.673-0.111c5.129-0.674,9.353-4.378,10.684-9.378 l6.05-22.613l22.613,6.059c4.975,1.374,10.325-0.478,13.466-4.574c3.166-4.096,3.524-9.702,0.939-14.191l-31.991-55.407 C368.691,364.954,371.2,355.601,371.2,345.6z M277.623,427.622l-1.374-5.111c-0.879-3.277-3.021-6.076-5.965-7.774 c-1.963-1.126-4.173-1.715-6.4-1.715c-1.109,0-2.227,0.154-3.311,0.435l-5.129,1.374l11.494-19.9 c6.613,5.41,14.259,9.472,22.69,11.904L277.623,427.622z M268.8,345.6c0-21.171,17.229-38.4,38.4-38.4s38.4,17.229,38.4,38.4 c0,21.171-17.229,38.4-38.4,38.4S268.8,366.771,268.8,345.6z M353.826,413.466c-3.277-0.879-6.758-0.427-9.711,1.271 c-2.935,1.698-5.086,4.497-5.965,7.774l-1.374,5.111l-11.998-20.787c8.422-2.423,16.068-6.485,22.682-11.895l11.494,19.9 L353.826,413.466z"/> </g> </g>
</svg>